<svg width="64" height="84" viewBox="0 0 64 84" fill="none" xmlns="http://www.w3.org/2000/svg">
<path d="M19.771 21.3674V14.7225H19.7642C19.7642 11.5024 21.0877 8.56881 23.2095 6.44707C25.338 4.31852 28.2648 2.99499 31.4849 2.99499V3.00181H31.5054V2.99499C34.7255 2.99499 37.6591 4.31852 39.7808 6.44025C41.9094 8.56881 43.2261 11.4956 43.2329 14.7157H43.2261V21.4425C41.8002 21.9132 40.7701 23.2504 40.7701 24.8332C40.7701 26.8048 42.3665 28.4081 44.345 28.4081C46.3166 28.4081 47.9198 26.8048 47.9198 24.8332C47.9198 23.5506 47.2444 22.4317 46.2347 21.8041V14.7157H46.2279C46.2211 10.6701 44.5701 6.99286 41.9094 4.33216C39.2419 1.66464 35.5578 0.0068223 31.5122 0.0068223V0H31.4917V0.0068223C27.4461 0.0068223 23.7689 1.66464 21.1082 4.32534C18.4407 6.99286 16.7829 10.6769 16.7829 14.7225H16.776V21.9883C15.9164 22.6432 15.357 23.6734 15.357 24.8332C15.357 26.8048 16.9602 28.4081 18.9319 28.4081C20.9035 28.4081 22.5068 26.8048 22.5068 24.8332C22.4999 23.1549 21.3333 21.7495 19.771 21.3674ZM7.49771 21.4834H11.9731C11.3864 22.5818 11.0453 23.8439 11.0453 25.1811C11.0453 25.645 11.0862 26.0953 11.1613 26.5319H8.95768L5.16448 78.7839H58.8355L55.0423 26.5319H51.9041C51.9791 26.0953 52.02 25.6382 52.02 25.1811C52.02 23.8439 51.6857 22.5886 51.0922 21.4834H56.4955C57.4574 21.4834 58.2966 21.8723 58.9174 22.4931C59.5178 23.0935 59.8998 23.9053 59.9612 24.7854L63.9795 80.1757C63.9864 80.2848 63.9932 80.3667 63.9932 80.4145C63.9932 81.3628 63.5907 82.2019 62.9698 82.8159C62.3899 83.3822 61.6054 83.7574 60.7594 83.8188C60.6503 83.8256 60.5616 83.8324 60.5138 83.8324H3.47937C3.43162 83.8324 3.34293 83.8256 3.23377 83.8188C2.39463 83.7574 1.60324 83.389 1.02335 82.8159C0.395693 82.2019 0 81.3628 0 80.4076C0 80.3599 0.0068223 80.2848 0.0136446 80.1689L4.03198 24.7786C4.09338 23.8985 4.47543 23.0867 5.07579 22.4863C5.70344 21.8723 6.54259 21.4834 7.49771 21.4834ZM25.7951 21.4834H37.277C36.6903 22.5818 36.3492 23.8439 36.3492 25.1811C36.3492 25.645 36.3902 26.0953 36.4652 26.5319H26.6002C26.6752 26.0953 26.7161 25.6382 26.7161 25.1811C26.723 23.8439 26.3818 22.5886 25.7951 21.4834Z" fill="black"/>
</svg>
