<svg width="123" height="123" viewBox="0 0 123 123" fill="none" xmlns="http://www.w3.org/2000/svg">
    <path fill-rule="evenodd" clip-rule="evenodd"
        d="M22.63 12.6H115.93C122.03 12.6 121.7 15.07 121.17 21.37L117.7 65.6C117.11 72.65 117.61 70.94 110.14 72.01L41.52 80.74L45.15 91.27C74.92 91.27 89.31 91.27 119.06 91.27C120.06 95.01 121.42 101.1 122.42 105.27H110.14L108.96 101.01C84.16 101.01 74.71 101.01 49.9 101.01C36.35 100.78 37.71 104.45 34.46 92.74L11.18 8.11H0V0H19.61C20.52 3.41 21.78 9.15 22.63 12.6ZM63.49 23.76H81.25V41.78H97.23L72.39 65.95L47.51 41.78H63.49V23.76ZM53.69 103.92C58.92 103.92 63.17 108.17 63.17 113.4C63.17 118.64 58.93 122.88 53.69 122.88C48.45 122.88 44.21 118.64 44.21 113.4C44.21 108.17 48.45 103.92 53.69 103.92ZM92.79 103.92C98.02 103.92 102.27 108.17 102.27 113.4C102.27 118.64 98.02 122.88 92.79 122.88C87.55 122.88 83.31 118.64 83.31 113.4C83.31 108.17 87.55 103.92 92.79 103.92Z"
        fill="black" />
</svg>