<svg width="64" height="64" viewBox="0 0 64 64" fill="none" xmlns="http://www.w3.org/2000/svg">
    <path
        d="M64 32C64 14.3264 49.6736 0 32 0C14.3264 0 0 14.3264 0 32C0 47.0079 10.3318 59.5992 24.2697 63.0582V41.7785H17.671V32H24.2697V27.7866C24.2697 16.894 29.1986 11.8457 39.8912 11.8457C41.9194 11.8457 45.4174 12.2442 46.8483 12.6416V21.506C46.0926 21.4268 44.7811 21.3866 43.1516 21.3866C37.9046 21.3866 35.8765 23.3745 35.8765 28.5422V32H46.329L44.5334 41.7785H35.8765V63.7661C51.7218 61.8524 64 48.3609 64 32Z"
        fill="#0866FF" />
    <path
        d="M44.5334 41.7785L46.3289 32H35.8764V28.5422C35.8764 23.3744 37.9046 21.3865 43.1516 21.3865C44.7811 21.3865 46.0926 21.4268 46.8482 21.506V12.6416C45.4173 12.2442 41.9194 11.8456 39.8912 11.8456C29.1986 11.8456 24.2697 16.8952 24.2697 27.7865V32H17.671V41.7785H24.2697V63.0582C26.7454 63.6718 29.3344 64 32 64C33.3127 64 34.6052 63.9195 35.8764 63.7661V41.7785H44.5334Z"
        fill="white" />

</svg>