<svg width="64" height="64" viewBox="0 0 64 64" fill="none" xmlns="http://www.w3.org/2000/svg">
    <path
        d="M0 32C0 45.6613 8.5625 57.325 20.6138 61.915C20.32 59.4163 20.0088 55.2963 20.68 52.4062C21.2588 49.92 24.4163 36.5713 24.4163 36.5713C24.4163 36.5713 23.4638 34.665 23.4638 31.84C23.4638 27.4138 26.03 24.1063 29.2275 24.1063C31.9475 24.1063 33.2588 26.1475 33.2588 28.5925C33.2588 31.3263 31.5175 35.4112 30.6187 39.2012C29.87 42.3712 32.2113 44.9575 35.3363 44.9575C40.9975 44.9575 45.3525 38.9862 45.3525 30.3687C45.3525 22.7387 39.87 17.4088 32.0425 17.4088C22.9825 17.4088 17.6625 24.2063 17.6625 31.2325C17.6625 33.9713 18.715 36.905 20.0325 38.5025C20.1989 38.6785 20.2915 38.9115 20.2913 39.1538C20.2913 39.2413 20.2787 39.33 20.255 39.415C20.0125 40.4238 19.4725 42.5863 19.37 43.0275C19.2288 43.6088 18.9087 43.735 18.3025 43.4525C14.325 41.6012 11.8387 35.785 11.8387 31.1138C11.8387 21.0625 19.1388 11.8363 32.8838 11.8363C43.935 11.8363 52.525 19.7112 52.525 30.2337C52.525 41.2125 45.6038 50.05 35.9938 50.05C32.7638 50.05 29.7325 48.3688 28.6925 46.3875C28.6925 46.3875 27.095 52.4725 26.7075 53.9613C25.9563 56.8525 23.87 60.51 22.5775 62.5875C25.5575 63.5075 28.72 64 32 64C49.6725 64 64 49.6712 64 32C64 14.3288 49.6725 0 32 0C14.3275 0 0 14.3275 0 32Z"
        fill="#E60019" />
</svg>