<svg width="64" height="64" viewBox="0 0 64 64" fill="none" xmlns="http://www.w3.org/2000/svg">
    <path fill-rule="evenodd" clip-rule="evenodd"
        d="M63.999 12.1526C61.6463 13.2048 59.1115 13.904 56.4648 14.2157C59.1764 12.5917 61.2502 10.0183 62.2401 6.95441C59.7057 8.45336 56.8889 9.55275 53.9042 10.1408C51.5044 7.59089 48.0958 6.00574 44.3198 6.00574C37.0695 6.00574 31.1993 11.8792 31.1993 19.1251C31.1993 20.1477 31.3127 21.1482 31.5349 22.113C20.6254 21.5601 10.9536 16.3375 4.47916 8.39134C3.31775 10.3949 2.70316 12.6729 2.70316 14.9898V14.9913C2.70316 19.541 5.01312 23.5649 8.53786 25.9115C6.38707 25.8476 4.36396 25.2478 2.58758 24.2759V24.4399C2.58758 30.8024 7.10995 36.1114 13.1192 37.3114C12.0182 37.6103 10.8561 37.7754 9.65875 37.7754C8.81069 37.7754 7.99354 37.6881 7.18099 37.5404C8.85946 42.7511 13.7042 46.5497 19.4415 46.6604C14.943 50.1848 9.2928 52.2834 3.13324 52.2834C2.07014 52.2834 1.03449 52.2183 0.000183105 52.0944C5.82278 55.8304 12.7204 57.994 20.1303 57.994C44.2714 57.994 57.4841 37.988 57.4841 20.6417C57.4841 20.0653 57.4712 19.5068 57.4474 18.9421C60.0114 17.108 62.2344 14.7932 63.994 12.1582L64 12.1522L63.9988 12.153L63.999 12.1526Z"
        fill="#1DA1F2" />
</svg>