<svg width="108" height="123" viewBox="0 0 108 123" fill="none" xmlns="http://www.w3.org/2000/svg">
    <path fill-rule="evenodd" clip-rule="evenodd"
        d="M4.21 0H103C104.116 0.00264084 105.185 0.447041 105.974 1.236C106.763 2.02495 107.207 3.09425 107.21 4.21V118.67C107.205 119.785 106.759 120.853 105.971 121.641C105.183 122.429 104.115 122.875 103 122.88H4.21C3.09506 122.875 2.02728 122.429 1.23889 121.641C0.4505 120.853 0.00525924 119.785 0 118.67L0 4.21C0.00525924 3.09506 0.4505 2.02728 1.23889 1.23889C2.02728 0.4505 3.09506 0.00525924 4.21 0ZM69 80.67C69.3858 80.4251 69.8503 80.336 70.2993 80.4209C70.7483 80.5059 71.1483 80.7584 71.4179 81.1273C71.6876 81.4962 71.8069 81.9539 71.7516 82.4075C71.6963 82.8611 71.4705 83.2767 71.12 83.57L66.25 87.16C65.8642 87.405 65.3997 87.494 64.9507 87.4091C64.5017 87.3241 64.1017 87.0716 63.8321 86.7027C63.5624 86.3338 63.4431 85.8761 63.4984 85.4225C63.5537 84.9689 63.7795 84.5533 64.13 84.26L69 80.67ZM88.12 64.67C88.2981 64.505 88.5078 64.3777 88.7364 64.2958C88.965 64.2139 89.2078 64.1791 89.4502 64.1935C89.6926 64.2079 89.9296 64.2712 90.1469 64.3796C90.3642 64.488 90.5573 64.6393 90.7146 64.8243C90.8719 65.0093 90.9902 65.2242 91.0623 65.4561C91.1343 65.688 91.1588 65.932 91.134 66.1736C91.1093 66.4152 91.036 66.6493 90.9184 66.8617C90.8009 67.0742 90.6415 67.2607 90.45 67.41L75.9 79.72C75.7273 79.9066 75.517 80.0545 75.2831 80.1539C75.0491 80.2534 74.7967 80.3021 74.5425 80.297C74.2883 80.2918 74.0381 80.2329 73.8083 80.124C73.5785 80.0152 73.3744 79.8589 73.2095 79.6655C73.0445 79.472 72.9223 79.2458 72.8511 79.0018C72.7798 78.7577 72.7611 78.5013 72.7961 78.2495C72.8311 77.9977 72.9191 77.7561 73.0542 77.5408C73.1893 77.3254 73.3685 77.1411 73.58 77L88.11 64.65L88.12 64.67ZM89 78.92C89.3687 78.615 89.8434 78.4689 90.3197 78.5139C90.796 78.559 91.235 78.7914 91.54 79.16C91.845 79.5287 91.9911 80.0034 91.9461 80.4797C91.901 80.956 91.6687 81.395 91.3 81.7L68.41 100.39C68.0414 100.69 67.5687 100.831 67.0962 100.782C66.6236 100.733 66.1897 100.499 65.89 100.13C65.5903 99.7613 65.4493 99.2887 65.4981 98.8162C65.5469 98.3436 65.7814 97.9097 66.15 97.61L89 78.92ZM37.18 42.55C36.9902 42.6989 36.7725 42.8081 36.5397 42.8712C36.3069 42.9343 36.0638 42.95 35.8248 42.9173C35.5859 42.8846 35.3559 42.8042 35.1486 42.6808C34.9413 42.5575 34.7609 42.3938 34.6181 42.1994C34.4754 42.005 34.3731 41.7839 34.3175 41.5492C34.2618 41.3145 34.2539 41.0711 34.2942 40.8332C34.3344 40.5954 34.4221 40.3682 34.552 40.1649C34.6818 39.9616 34.8512 39.7865 35.05 39.65L39.92 36.06C40.3099 35.7842 40.7933 35.6745 41.2641 35.7552C41.7348 35.8358 42.1542 36.1001 42.43 36.49C42.7058 36.8799 42.8155 37.3633 42.7348 37.8341C42.6542 38.3048 42.3899 38.7242 42 39L37.14 42.59L37.18 42.55ZM18.05 58.55C17.8734 58.7234 17.6629 58.8585 17.4316 58.9469C17.2004 59.0352 16.9535 59.075 16.7062 59.0636C16.4589 59.0522 16.2167 58.9899 15.9946 58.8807C15.7725 58.7714 15.5753 58.6175 15.4153 58.4286C15.2554 58.2397 15.1361 58.0199 15.065 57.7828C14.9938 57.5457 14.9724 57.2965 15.0019 57.0507C15.0314 56.805 15.1113 56.5679 15.2366 56.3545C15.3619 56.141 15.5299 55.9556 15.73 55.81L30.26 43.5C30.6275 43.2326 31.0826 43.1141 31.5338 43.1683C31.985 43.2226 32.3991 43.4455 32.6928 43.7923C32.9864 44.1392 33.138 44.5843 33.1171 45.0383C33.0962 45.4923 32.9043 45.9216 32.58 46.24L18.05 58.57V58.55ZM17.13 44.3C16.9475 44.4484 16.7375 44.5594 16.5121 44.6266C16.2866 44.6939 16.0502 44.7161 15.8162 44.6919C15.5821 44.6678 15.3552 44.5978 15.1482 44.4859C14.9413 44.3741 14.7584 44.2225 14.61 44.04C14.4616 43.8575 14.3506 43.6475 14.2834 43.4221C14.2161 43.1966 14.1939 42.9602 14.2181 42.7262C14.2422 42.4921 14.3122 42.2652 14.4241 42.0582C14.5359 41.8513 14.6875 41.6684 14.87 41.52L37.75 22.83C37.931 22.6697 38.1426 22.5476 38.372 22.4713C38.6014 22.395 38.8439 22.3659 39.0849 22.3859C39.3258 22.4058 39.5603 22.4744 39.774 22.5875C39.9877 22.7005 40.1763 22.8557 40.3284 23.0436C40.4806 23.2316 40.593 23.4484 40.659 23.681C40.7251 23.9136 40.7433 24.1572 40.7126 24.397C40.6819 24.6368 40.6029 24.868 40.4804 25.0764C40.358 25.2849 40.1945 25.4664 40 25.61L17.13 44.3ZM8.37 8.3H49.5V114.61H8.37V8.27V8.3ZM57.73 8.3H98.86V114.61H57.73V8.27V8.3Z"
        fill="black" />
</svg>