<svg width="64" height="64" viewBox="0 0 64 64" fill="none" xmlns="http://www.w3.org/2000/svg">
    <path fill-rule="evenodd" clip-rule="evenodd"
        d="M63.3466 19.2038C63.3466 19.2038 62.7219 14.7924 60.799 12.8554C58.3623 10.3077 55.634 10.2914 54.3867 10.1435C45.4378 9.49152 31.9968 9.49152 31.9968 9.49152H31.9734C31.9734 9.49152 18.5386 9.49152 9.58466 10.1435C8.33243 10.2958 5.60795 10.3064 3.17243 12.8554C1.2482 14.7924 0.636681 19.2038 0.636681 19.2038C0.636681 19.2038 -0.000183105 24.3806 -0.000183105 29.5682V34.4191C-0.000183105 39.5958 0.636297 44.7831 0.636297 44.7831C0.636297 44.7831 1.26107 49.1945 3.17204 51.1348C5.60757 53.6825 8.8084 53.5997 10.2373 53.8716C15.3608 54.3606 32.0013 54.5081 32.0013 54.5081C32.0013 54.5081 45.4537 54.4843 54.4029 53.8443C55.6551 53.6965 58.3784 53.6815 60.8151 51.1325C62.7391 49.1954 63.3628 44.7792 63.3628 44.7792C63.3628 44.7792 64 39.6025 64 34.4153V29.5648C63.9871 24.388 63.3503 19.2008 63.3503 19.2008L63.3468 19.2042L63.3464 19.2038H63.3466ZM25.3676 40.3041V22.3173L42.6565 31.3408L25.3676 40.3041Z"
        fill="#FF0000" />
</svg>